<svg id="CAA_Logo" data-name="CAA Logo" xmlns="http://www.w3.org/2000/svg" xmlns:xlink="http://www.w3.org/1999/xlink" viewBox="0 0 100 130.82"><defs><style>.cls-1{fill:#fff;}.cls-2{fill:url(#radial-gradient);}.cls-3{fill:url(#radial-gradient-2);}</style><radialGradient id="radial-gradient" cx="1.56" cy="140.83" r="175.71" gradientTransform="scale(0.92 0.92)" gradientUnits="userSpaceOnUse"><stop offset="0.32" stop-color="#1c2869"/><stop offset="0.9" stop-color="#00a8d7"/></radialGradient><radialGradient id="radial-gradient-2" cx="1.41" cy="140.83" r="175.71" xlink:href="#radial-gradient"/></defs><title>new-caa-logo</title><rect id="White_bg" data-name="White bg" class="cls-1" width="100" height="130.82"/><path class="cls-2" d="M93.79,77.12a57.87,57.87,0,0,0,6.21-.34L100,0H57.11C48.73,8.2,43.49,19.21,43.49,31.23,43.49,56.58,66,77.12,93.79,77.12Z"/><path class="cls-3" d="M100,78.88a70.83,70.83,0,0,1-21.56,3.3c-37.55,0-68-28.76-68-64.24,0-7.41,1.32-14.52,3.77-17.94H0V130.82H100Z"/><g id="Outline_text" data-name="Outline text"><path class="cls-1" d="M8.11,82.16v6.4c0,2.15.89,3.14,2.25,3.14s2.31-1,2.31-3.14v-6.4h2v6.27c0,3.39-1.74,4.89-4.38,4.89S6.11,91.9,6.11,88.45V82.16Z"/><path class="cls-1" d="M16.84,82.16h2v5h.05c.26-.42.54-.81.8-1.19l2.86-3.86H25l-3.78,4.68,4,6.3H22.91l-3.11-5-1,1.17v3.86h-2Z"/><path class="cls-1" d="M14,107.84a6.9,6.9,0,0,1-2.84.49c-3.48,0-5.6-2.18-5.6-5.52A5.53,5.53,0,0,1,11.41,97a6.29,6.29,0,0,1,2.67.49l-.44,1.6a5.24,5.24,0,0,0-2.14-.43c-2.24,0-3.85,1.4-3.85,4a3.61,3.61,0,0,0,3.83,4,5.5,5.5,0,0,0,2.18-.41Z"/><path class="cls-1" d="M17.57,98a1.13,1.13,0,1,1-1.13-1.09A1.06,1.06,0,0,1,17.57,98Zm-2.13,10.15v-7.93h2v7.93Z"/><path class="cls-1" d="M20.74,100.24l1.29,4c.23.7.39,1.33.54,2h.05c.14-.66.32-1.27.53-2l1.26-4h2.11l-3,7.93h-2l-3-7.93Z"/><path class="cls-1" d="M29.75,98a1.13,1.13,0,1,1-1.13-1.09A1.06,1.06,0,0,1,29.75,98Zm-2.13,10.15v-7.93h2v7.93Z"/><path class="cls-1" d="M31.65,96.61h2v11.56h-2Z"/><path class="cls-1" d="M40.23,105.06l-.94,3.11H37.22l3.52-11h2.55l3.57,11H44.71l-1-3.11Zm3.14-1.52-.86-2.7c-.21-.67-.39-1.42-.55-2h0c-.16.63-.32,1.4-.52,2l-.84,2.7Z"/><path class="cls-1" d="M49,100.24l1.28,4c.23.7.39,1.33.54,2h.05c.15-.66.33-1.27.54-2l1.25-4h2.12l-3,7.93h-2l-2.95-7.93Z"/><path class="cls-1" d="M58,98a1.13,1.13,0,1,1-1.12-1.09A1.06,1.06,0,0,1,58,98Zm-2.13,10.15v-7.93h2v7.93Z"/><path class="cls-1" d="M64.38,108.17l-.13-.88h0a3,3,0,0,1-2.35,1.06A2.36,2.36,0,0,1,59.36,106c0-2,1.78-3,4.71-3v-.13c0-.52-.21-1.38-1.61-1.38a4.26,4.26,0,0,0-2.14.58l-.39-1.3a5.73,5.73,0,0,1,2.87-.7c2.54,0,3.27,1.61,3.27,3.34v2.86a11.64,11.64,0,0,0,.12,1.91Zm-.26-3.88c-1.42,0-2.77.28-2.77,1.48a1,1,0,0,0,1.14,1.14,1.62,1.62,0,0,0,1.56-1.09,1.39,1.39,0,0,0,.07-.44Z"/><path class="cls-1" d="M70.26,98v2.27h1.9v1.5h-1.9v3.5c0,1,.26,1.46,1,1.46a2.84,2.84,0,0,0,.78-.1l0,1.54a4.6,4.6,0,0,1-1.45.19,2.31,2.31,0,0,1-1.73-.65,3.19,3.19,0,0,1-.62-2.22v-3.72H67.16v-1.5H68.3V98.45Z"/><path class="cls-1" d="M75.68,98a1.13,1.13,0,1,1-1.12-1.09A1.06,1.06,0,0,1,75.68,98Zm-2.13,10.15v-7.93h2v7.93Z"/><path class="cls-1" d="M85.12,104.13a3.93,3.93,0,0,1-4.07,4.22,3.83,3.83,0,0,1-4-4.09,3.91,3.91,0,0,1,4.1-4.2A3.8,3.8,0,0,1,85.12,104.13Zm-6,.08c0,1.53.75,2.69,2,2.69s1.93-1.13,1.93-2.72c0-1.24-.55-2.66-1.92-2.66S79.15,102.89,79.15,104.21Z"/><path class="cls-1" d="M86.64,102.6c0-.91,0-1.68-.07-2.36h1.76l.1,1.19h0A2.85,2.85,0,0,1,91,100.06c1.39,0,2.82.89,2.82,3.4v4.71h-2v-4.48c0-1.14-.43-2-1.52-2a1.67,1.67,0,0,0-1.56,1.17,1.9,1.9,0,0,0-.08.65v4.66h-2Z"/><path class="cls-1" d="M8.32,120.09l-.94,3.11H5.31l3.51-11h2.56l3.57,11H12.8l-1-3.11Zm3.14-1.52-.86-2.7c-.21-.67-.39-1.42-.55-2.05h0c-.16.63-.32,1.4-.52,2.05l-.84,2.7Z"/><path class="cls-1" d="M23.14,120.82c0,1,0,1.73.06,2.38H21.44L21.35,122h0a2.86,2.86,0,0,1-2.54,1.39c-1.45,0-2.76-.87-2.76-3.45v-4.66h2v4.31c0,1.32.42,2.17,1.48,2.17A1.68,1.68,0,0,0,21,120.67a1.66,1.66,0,0,0,.11-.61v-4.79h2Z"/><path class="cls-1" d="M27.47,113v2.27h1.9v1.5h-1.9v3.5c0,1,.26,1.46,1,1.46a3.5,3.5,0,0,0,.79-.09l0,1.53a4.55,4.55,0,0,1-1.45.19,2.33,2.33,0,0,1-1.73-.65,3.17,3.17,0,0,1-.62-2.21v-3.73H24.37v-1.5h1.14v-1.79Z"/><path class="cls-1" d="M30.76,111.64h2v4.72h0a2.64,2.64,0,0,1,1-.91,2.72,2.72,0,0,1,1.37-.36c1.35,0,2.77.89,2.77,3.44v4.67h-2v-4.45c0-1.15-.43-2-1.53-2a1.62,1.62,0,0,0-1.55,1.13,1.56,1.56,0,0,0-.08.6v4.74h-2Z"/><path class="cls-1" d="M47.48,119.16a3.93,3.93,0,0,1-4.07,4.22,3.83,3.83,0,0,1-4-4.09,3.91,3.91,0,0,1,4.1-4.2A3.8,3.8,0,0,1,47.48,119.16Zm-6,.08c0,1.53.75,2.69,2,2.69s1.94-1.13,1.94-2.72c0-1.24-.55-2.66-1.92-2.66S41.5,117.92,41.5,119.24Z"/><path class="cls-1" d="M49,117.82c0-1.07,0-1.84-.06-2.55h1.74l.07,1.51h.06A2.37,2.37,0,0,1,53,115.09a2.26,2.26,0,0,1,.47,0V117a2.32,2.32,0,0,0-.59-.07,1.77,1.77,0,0,0-1.79,1.52,3.72,3.72,0,0,0-.06.62v4.1H49Z"/><path class="cls-1" d="M56.79,113.05a1.06,1.06,0,0,1-1.14,1.08,1.05,1.05,0,0,1-1.1-1.08,1.12,1.12,0,0,1,2.24,0ZM54.66,123.2v-7.93h2v7.93Z"/><path class="cls-1" d="M61,113v2.27H62.9v1.5H61v3.5c0,1,.27,1.46,1,1.46a3.47,3.47,0,0,0,.78-.09l0,1.53a4.6,4.6,0,0,1-1.45.19,2.3,2.3,0,0,1-1.73-.65A3.17,3.17,0,0,1,59,120.5v-3.73H57.9v-1.5H59v-1.79Z"/><path class="cls-1" d="M65.65,115.27l1.43,4.25c.17.49.33,1.09.44,1.55h0c.13-.46.28-1,.43-1.57l1.23-4.23h2.15l-2,5.4c-1.09,3-1.83,4.29-2.77,5.1a4.09,4.09,0,0,1-2.1,1l-.46-1.7a3.39,3.39,0,0,0,1.17-.55,3.5,3.5,0,0,0,1.1-1.25.62.62,0,0,0,0-.75l-2.9-7.28Z"/></g></svg>